<svg id="Layer_1" data-name="Layer 1" xmlns="http://www.w3.org/2000/svg" viewBox="0 0 76.42 99.89"><defs><style>.cls-1{fill:#243770;}</style></defs><title>prospectiveStu</title><path class="cls-1" d="M306.4,399.38H307a16.43,16.43,0,0,0,13.12-6.31c7.16-9,6-24.37,5.84-25.84-.47-11-5.15-16.3-9-18.76a19.09,19.09,0,0,0-10-2.92h-.32a19.06,19.06,0,0,0-10,2.83c-3.91,2.46-8.67,7.74-9.14,18.84-.13,1.47-1.32,16.86,5.84,25.84a16.37,16.37,0,0,0,13.1,6.31Zm-14-31.63c0-.06,0-.12,0-.17.61-14.83,10.08-16.42,14.14-16.42h.22c5,.12,13.56,2.4,14.14,16.42a.46.46,0,0,0,0,.17c0,.14,1.32,14.21-4.59,21.62a11.64,11.64,0,0,1-9.58,4.43h-.19a11.61,11.61,0,0,1-9.56-4.43c-5.9-7.36-4.63-21.49-4.61-21.62Zm0,0" transform="translate(-268.51 -345.56)"/><path class="cls-1" d="M344.93,424.91v-.06c0-.17,0-.33,0-.52-.11-4.1-.35-13.67-8.43-16.73l-.19-.06a51.54,51.54,0,0,1-15.44-7.82,2.35,2.35,0,0,0-3.5.68,3,3,0,0,0,.61,3.89,55.69,55.69,0,0,0,17,8.63c4.33,1.72,4.82,6.87,4.95,11.58a4.5,4.5,0,0,0,0,.52,41.67,41.67,0,0,1-.39,6.39c-3,1.9-14.83,8.48-32.8,8.48s-29.79-6.6-32.82-8.5a39.55,39.55,0,0,1-.39-6.39c0-.17,0-.33,0-.52.13-4.72.61-9.87,4.95-11.58a56.15,56.15,0,0,0,17-8.63,3,3,0,0,0,.61-3.89,2.35,2.35,0,0,0-3.5-.68,51,51,0,0,1-15.44,7.82l-.19.06c-8.07,3.08-8.32,12.66-8.43,16.73a4.49,4.49,0,0,1,0,.52v.06c0,1.08,0,6.6.95,9.37a2.61,2.61,0,0,0,1,1.3c.56.41,13.93,9.89,36.32,9.89s35.76-9.49,36.32-9.89a2.72,2.72,0,0,0,1-1.3c.93-2.75.91-8.27.89-9.35Zm0,0" transform="translate(-268.51 -345.56)"/></svg>