<svg id="Layer_1" data-name="Layer 1" xmlns="http://www.w3.org/2000/svg" viewBox="0 0 145.14 141.19"><defs><style>.cls-1{fill:#f05270;}.cls-2{fill:#f16c87;}.cls-3{fill:#5bcae9;}.cls-4{fill:#13a3bf;}.cls-5{fill:#485071;}.cls-6{fill:#545f8b;}.cls-7{fill:#fff;}.cls-8{fill:#fdc830;}</style></defs><title>call</title><path class="cls-1" d="M379.5,396.48a68.8,68.8,0,0,1-10.2,36.11,70.76,70.76,0,0,1-5.85,8.17A72.58,72.58,0,0,1,336.37,461l-1.08.46h0a74.07,74.07,0,0,1-28.36,5.6c-40.08,0-72.57-31.61-72.57-70.59a68.76,68.76,0,0,1,7.88-32,71.7,71.7,0,0,1,27.57-28.65,73.73,73.73,0,0,1,37.12-9.92C347,325.89,379.5,357.49,379.5,396.48Z" transform="translate(-234.35 -325.89)"/><path class="cls-2" d="M361.52,379a51.75,51.75,0,0,1-7.67,27.16,53.21,53.21,0,0,1-4.4,6.14,54.6,54.6,0,0,1-20.37,15.25l-.81.34h0a55.72,55.72,0,0,1-21.33,4.21c-30.15,0-54.59-23.78-54.59-53.1a51.72,51.72,0,0,1,5.93-24.09A53.94,53.94,0,0,1,279,333.35a55.47,55.47,0,0,1,27.92-7.46C337.08,325.89,361.52,349.66,361.52,379Z" transform="translate(-234.35 -325.89)"/><path class="cls-3" d="M369.3,432.59a72.27,72.27,0,0,1-34,28.89,69,69,0,0,1-7.56-.9c-19.09-3.31-40.56-14.55-59-32.45-16.18-15.75-27.08-33.8-31.78-50.55q-1-3.44-1.58-6.81c-2.86-15.62,0-29.6,9.51-38.8l3.27-3.18a9.84,9.84,0,0,1,1.09-.92,10.39,10.39,0,0,1,13.31.92l18.79,18.28a9.77,9.77,0,0,1,0,14l-14.07,13.69a130,130,0,0,0,24.08,31.34h0a133,133,0,0,0,32.22,23.43l14.07-13.69a10.51,10.51,0,0,1,1.09-.92,10.4,10.4,0,0,1,13.31.92Z" transform="translate(-234.35 -325.89)"/><path class="cls-4" d="M336.37,461l-1.08.46h0a69.65,69.65,0,0,1-7.55-.9c-19.09-3.31-40.56-14.55-59-32.45-16.18-15.75-27.08-33.8-31.78-50.55q-1-3.44-1.58-6.81c-2.86-15.62,0-29.6,9.51-38.8l3.27-3.18a9.84,9.84,0,0,1,1.09-.92,10.43,10.43,0,0,1,10.32-1.09,10.17,10.17,0,0,0-2.62,1.38,9.84,9.84,0,0,0-1.09.92l-3.27,3.18c-8.1,7.88-11.4,19.28-10.38,32.2a64,64,0,0,0,.87,6.6c3.4,18.57,15,39.45,33.36,57.36s39.87,29.14,59,32.45Z" transform="translate(-234.35 -325.89)"/><path class="cls-5" d="M262.59,328.79l18.79,18.28a9.71,9.71,0,0,1,.95,12.95,9.86,9.86,0,0,1-.94,1.06L274.26,368a9.86,9.86,0,0,0,.94-1.06,9.71,9.71,0,0,0-.95-12.95l-18.79-18.28a10.4,10.4,0,0,0-12.9-1.2,32.35,32.35,0,0,1,2.35-2.54l3.28-3.18a10,10,0,0,1,1.09-.92A10.39,10.39,0,0,1,262.59,328.79Z" transform="translate(-234.35 -325.89)"/><path class="cls-5" d="M369.3,432.59a70.76,70.76,0,0,1-5.85,8.17l-18.48-18a10.4,10.4,0,0,0-13.31-.92,10.09,10.09,0,0,0-1.09.92l7.12-6.93a10.51,10.51,0,0,1,1.09-.92,10.4,10.4,0,0,1,13.31.92Z" transform="translate(-234.35 -325.89)"/><path class="cls-6" d="M379.36,383.53,376,373.12a32.44,32.44,0,0,0,3-13.74c0-18.4-15.34-33.32-34.25-33.32S310.56,341,310.56,359.37s15.34,33.32,34.25,33.32a34.62,34.62,0,0,0,24.71-10.25Z" transform="translate(-234.35 -325.89)"/><path class="cls-7" d="M350.19,358.43c-2.58,2.28-2.64,4.38-2.64,8.17,0,.93-.6,1.81-2.52,1.81-1.62,0-2.34-.64-2.34-2.68,0-5.83,1.62-8.11,3.24-9.57,2.34-2.1,6.42-4.43,6.42-9.22,0-3.73-2.64-5.89-6.9-5.89-5.7,0-5.46,3.62-7.74,3.62a2.43,2.43,0,0,1-2.46-2.39c0-2.45,3.9-6,10.38-6,7.62,0,12,4.38,12,10C357.63,352.83,352.17,356.44,350.19,358.43Zm-1.56,17.8a3.55,3.55,0,0,1-3.54,3.5,3.5,3.5,0,1,1,0-7A3.55,3.55,0,0,1,348.63,376.22Z" transform="translate(-234.35 -325.89)"/><path class="cls-8" d="M314.31,360.41a23.54,23.54,0,0,0-14.61,30.37A24.18,24.18,0,0,0,317.93,406l4.53,10.12L327.32,406a25.12,25.12,0,0,0,3.61-1,23.54,23.54,0,0,0,14.61-30.37C340.95,362.31,327,355.94,314.31,360.41Z" transform="translate(-234.35 -325.89)"/><path class="cls-5" d="M325.61,398.13a3,3,0,0,1-6,0,3,3,0,0,1,6,0Zm-1-8.12c0,1.08-1.21,1.57-2,1.57-1.11,0-2.06-.49-2.06-1.57,0-7.1-.6-15.9-.6-23a2.37,2.37,0,0,1,2.67-2.35,2.4,2.4,0,0,1,2.67,2.35C325.26,374.1,324.61,382.91,324.61,390Z" transform="translate(-234.35 -325.89)"/></svg>