<svg id="Layer_1" data-name="Layer 1" xmlns="http://www.w3.org/2000/svg" viewBox="0 0 96.83 104.05"><defs><style>.cls-1{fill:#243770;}</style></defs><title>newStudent</title><path class="cls-1" d="M353.13,408.42H349.9v-26a1.79,1.79,0,0,0-.54-1.29,1.51,1.51,0,0,0-1.26-.43l-4.66.58v-5.79a1.8,1.8,0,0,0-.55-1.31,1.54,1.54,0,0,0-1.28-.41l-19.17,2.81a21.67,21.67,0,0,0,3.25-11.5c0-11.47-8.69-20.81-19.37-20.81S287,353.59,287,365.06a21.67,21.67,0,0,0,3.25,11.5L271,373.75a1.54,1.54,0,0,0-1.28.41,1.8,1.8,0,0,0-.55,1.31v5.79l-4.66-.58a1.51,1.51,0,0,0-1.26.43,1.79,1.79,0,0,0-.54,1.29v26h-3.23a1.68,1.68,0,0,0-1.61,1.73V431a1.68,1.68,0,0,0,1.61,1.73h3.23v8.67a1.69,1.69,0,0,0,1.43,1.72l42,5.2h.37l42-5.2a1.69,1.69,0,0,0,1.43-1.72v-8.67h3.23a1.68,1.68,0,0,0,1.61-1.73V410.15a1.68,1.68,0,0,0-1.61-1.73Zm-12.91-31v4.2l-32.28,4v-3.48l10.82-1.58h0Zm-79.08,51.77V411.88h3.23c4.45,0,8.07,3.89,8.07,8.67s-3.62,8.67-8.07,8.67Zm43.57,15.39L266,439.82v-7.25l.37-.08.45-.09.61-.17.42-.13c.21-.07.42-.16.63-.25l.36-.15c.24-.11.47-.24.71-.36l.24-.13c.31-.18.61-.38.9-.59l.14-.11c.24-.18.47-.36.69-.55l.27-.25c.17-.16.34-.32.51-.49l.28-.32c.15-.17.29-.33.43-.5l.27-.36c.13-.17.25-.35.37-.53l.24-.39c.11-.18.21-.37.31-.56l.21-.42c.09-.19.18-.39.27-.59l.18-.44c.08-.21.15-.42.21-.63s.1-.3.14-.45.11-.45.16-.68.07-.29.1-.44.08-.52.11-.78,0-.25,0-.38c0-.39.05-.78.05-1.18s0-.8-.06-1.19c0-.13,0-.26-.05-.38s-.06-.52-.11-.77-.07-.29-.1-.44-.1-.46-.16-.68-.09-.3-.14-.45-.14-.42-.21-.63-.12-.29-.18-.44-.17-.39-.26-.59l-.21-.42c-.1-.19-.2-.37-.32-.55l-.25-.4c-.12-.18-.24-.35-.37-.53l-.27-.36c-.14-.17-.28-.34-.43-.5l-.28-.32c-.16-.17-.33-.33-.51-.49l-.27-.26c-.22-.19-.45-.37-.68-.55l-.15-.12c-.29-.21-.59-.4-.9-.59l-.24-.13c-.23-.13-.46-.25-.71-.37l-.36-.15-.63-.25-.42-.13-.61-.17-.46-.09-.37-.07V384.35l4.66.58,3.15.39,30.93,3.84Zm0-59-32.28-4v-4.2l21.46,3.14h0l10.82,1.59Zm1.61-6.74-11.47-1.68a17.82,17.82,0,0,1-4.67-12.17c0-9.56,7.24-17.34,16.14-17.34s16.14,7.78,16.14,17.34a17.82,17.82,0,0,1-4.67,12.17Zm40.35,60.9-38.73,4.8V389.15l30.92-3.83,3.15-.39,4.66-.58v24.2c-5.47.85-9.68,5.9-9.68,12s4.22,11.15,9.68,12Zm4.84-10.59h-3.23c-4.45,0-8.07-3.89-8.07-8.67s3.62-8.67,8.07-8.67h3.23Zm0,0" transform="translate(-257.92 -344.25)"/><path class="cls-1" d="M341.29,391.51a1.56,1.56,0,0,0-1.27-.42l-25.82,3.47a1.69,1.69,0,0,0-1.41,1.72v13.87a1.79,1.79,0,0,0,.54,1.3,1.56,1.56,0,0,0,1.07.43h.2l25.82-3.47a1.7,1.7,0,0,0,1.41-1.72V392.81a1.8,1.8,0,0,0-.55-1.3Zm-2.68,13.64-22.59,3V397.81l22.59-3Zm0,0" transform="translate(-257.92 -344.25)"/></svg>