<svg id="Layer_1" data-name="Layer 1" xmlns="http://www.w3.org/2000/svg" viewBox="0 0 100.8 111.67"><defs><style>.cls-1{fill:#233870;}</style></defs><title>returningStu</title><path class="cls-1" d="M266.4,355c12.25-3.32,24.52-7.46,36.95-10-1.6.33-1.24-.26,0,.3a26.11,26.11,0,0,0,3.77,1.09l12,3.47L337.06,355v-4.82l-17.93,4.91-12,3.3a27.23,27.23,0,0,0-3.77,1c-1.17.52-1.53,0,0,.28-12.41-2.43-24.7-6.37-36.95-9.53-3.12-.8-4.45,4-1.33,4.82l18.54,4.78L296,363c1.91.49,4.16,1.45,6.14,1.58s3.79-.67,5.61-1.16l11.77-3.22L338.39,355a2.52,2.52,0,0,0,0-4.82l-18.88-5.43-11.77-3.39c-1.8-.52-3.72-1.37-5.61-1.22s-4.23,1.15-6.14,1.66l-12.38,3.35-18.54,5C262,351,263.28,355.87,266.4,355Z" transform="translate(-255.99 -340.15)"/><path class="cls-1" d="M344.38,360.94l-4.5-9.56c-1.37-2.91-5.68-.37-4.32,2.52l4.5,9.56c1.37,2.91,5.68.37,4.32-2.52Z" transform="translate(-255.99 -340.15)"/><path class="cls-1" d="M280.94,357.41v18.65a2.54,2.54,0,0,0,2.5,2.5H320a2.54,2.54,0,0,0,2.5-2.5V357.41c0-3.22-5-3.22-5,0v18.65l2.5-2.5H283.44l2.5,2.5V357.41c0-3.22-5-3.22-5,0Z" transform="translate(-255.99 -340.15)"/><path class="cls-1" d="M260.91,450c3.4-12.82,10.07-26.32,19.92-35.32,9.09-8.31,20-9,31.86-8.53a39.78,39.78,0,0,1,6.36.59c.55.11,2.36,1,2.83.87s-.46.11-.12-.65c.08-.17.31-.92.18-.73-1.18,1.71.44,3.59,2.16,3.76-1.22-.12,1,.4,1.31.55a22.32,22.32,0,0,1,6.16,4.64c9.49,9.4,15.32,22.64,20.22,34.82,1.19,2.95,6,1.66,4.82-1.33-5.31-13.19-11.54-27.49-22-37.51-2.79-2.67-6.47-5.77-10.5-6.17l2.16,3.76c6.48-9.4-26.62-7.4-27.85-7.29-18.12,1.56-30,17.42-36.95,32.78a92.44,92.44,0,0,0-5.37,14.43c-.83,3.11,4,4.44,4.82,1.33Z" transform="translate(-255.99 -340.15)"/><path class="cls-1" d="M289.39,407.32l16,16.74a2.52,2.52,0,0,0,3.54,0l14.35-16.74c2.08-2.43-1.44-6-3.54-3.54l-14.35,16.74h3.54l-16-16.74c-2.23-2.33-5.76,1.21-3.54,3.54Z" transform="translate(-255.99 -340.15)"/><path class="cls-1" d="M309.93,440l-.25-17.69c0-3.21-5-3.22-5,0l.25,17.69c0,3.21,5,3.22,5,0Z" transform="translate(-255.99 -340.15)"/><path class="cls-1" d="M318.29,376c1.15,9.31-6.61,16.71-15.65,17.36A16.41,16.41,0,0,1,285.07,376c.18-3.21-4.82-3.2-5,0a21.4,21.4,0,0,0,22.58,22.34c11.51-.73,22.14-10.29,20.65-22.36-.39-3.15-5.39-3.19-5,0Z" transform="translate(-255.99 -340.15)"/></svg>