<svg id="Layer_1" data-name="Layer 1" xmlns="http://www.w3.org/2000/svg" viewBox="0 0 76.88 98.75"><defs><style>.cls-1{fill:#243770;}</style></defs><title>semesterResu</title><path class="cls-1" d="M302.39,407.2l1,3.68H311l-8.71-25.76h-7.21l-8.8,25.76h7.39l1.09-3.68Zm-3.68-13.46h.07l2.14,8h-4.53Zm0,0" transform="translate(-268.41 -346.35)"/><path class="cls-1" d="M318.26,392.67V399h-5.89v5.51h5.89v6.35h5.12v-6.35h5.91V399h-5.91v-6.35Zm0,0" transform="translate(-268.41 -346.35)"/><path class="cls-1" d="M306.85,430.93c16.49,0,29.9-11.44,29.9-29.19s-13.41-32.2-29.9-32.2c-5,0-12.78,2.64-14,3.76s-.82,3.72,1.39,2.6,8-3.35,12.57-3.35c15,0,27.12,13.09,27.12,29.19s-12.16,26.19-27.12,26.19-27.09-10.1-27.09-26.19c0-5.11,2.49-13.06,3.36-14.08s-1.34-3.62-2.24-1.8S277,396,277,401.74c0,17.75,13.41,29.19,29.89,29.19Zm0,0" transform="translate(-268.41 -346.35)"/><path class="cls-1" d="M328.58,346.35l-.67.07-.07-.07H268.41V445.1H345.3V364.37Zm-56,94.31V350.78h52.53v17.65h16.12v72.23Zm0,0" transform="translate(-268.41 -346.35)"/></svg>